<svg xmlns="http://www.w3.org/2000/svg" viewBox="0 0 24 24"><path fill="#000" d="M20,13H4a1,1,0,0,1,0-2H20a1,1,0,0,1,0,2Z"/><circle cx="12" cy="16" r="1" fill="#aaa"/><circle cx="12" cy="20" r="1" fill="#aaa"/><circle cx="12" cy="8" r="1" fill="#aaa"/><circle cx="12" cy="4" r="1" fill="#aaa"/><circle cx="4" cy="16" r="1" fill="#aaa"/><circle cx="4" cy="20" r="1" fill="#aaa"/><circle cx="4" cy="8" r="1" fill="#aaa"/><circle cx="4" cy="4" r="1" fill="#aaa"/><circle cx="8" cy="4" r="1" fill="#aaa"/><circle cx="16" cy="4" r="1" fill="#aaa"/><circle cx="8" cy="20" r="1" fill="#aaa"/><circle cx="16" cy="20" r="1" fill="#aaa"/><circle cx="20" cy="16" r="1" fill="#aaa"/><circle cx="20" cy="20" r="1" fill="#aaa"/><circle cx="20" cy="8" r="1" fill="#aaa"/><circle cx="20" cy="4" r="1" fill="#aaa"/></svg>